Source: The New World.2005.Extended Cut.720p.BluRay.X264-AMIABLE

Subs: Arabic, Brazilian, Bulgarian, Croatian, Dutch, English, Estonian, Farsi-Persian, French, Hebrew, Portuguese, Romanian, Servian and Spanish.

Subs: English hardcoded when needed.

Sample and Screens included.

General
Complete name                    : The New World-720p MP AAC x264 Extended Edition BRRip 2005-CC.mp4
Format                           : MPEG-4
Format profile                   : Base Media
Codec ID                         : isom
File size                        : 3.31 GiB
Duration                         : 2h 51mn
Overall bit rate                 : 2 761 Kbps
Encoded date                     : UTC 2012-05-19 08:35:57

Video
ID                               : 1
Format                           : AVC
Format/Info                      : Advanced Video Codec
Format profile                   : High@L3.1
Format settings, CABAC           : Yes
Format settings, ReFrames        : 5 frames
Codec ID                         : avc1
Codec ID/Info                    : Advanced Video Coding
Duration                         : 2h 51mn
Bit rate mode                    : Variable
Bit rate                         : 2 370 Kbps
Maximum bit rate                 : 40.0 Mbps
Width                            : 1 280 pixels
Height                           : 544 pixels
Display aspect ratio             : 2.35:1
Frame rate mode                  : Variable
Frame rate                       : 23.976 fps
Minimum frame rate               : 19.048 fps
Maximum frame rate               : 24.390 fps
Resolution                       : 24 bits
Colorimetry                      : 4:2:0
Scan type                        : Progressive
Bits/(Pixel*Frame)               : 0.142
Stream size                      : 2.85 GiB (86%)
Writing library                  : x264 core 112

Audio
ID                               : 2
Format                           : AAC
Format/Info                      : Advanced Audio Codec
Format version                   : Version 4
Format profile                   : LC
Format settings, SBR             : No
Codec ID                         : 40
Duration                         : 2h 51mn
Bit rate mode                    : Variable
Bit rate                         : 384 Kbps
Maximum bit rate                 : 716 Kbps
Channel(s)                       : 6 channels
Channel positions                : Front: L C R, Rear: L R, LFE
Sampling rate                    : 48.0 KHz
Resolution                       : 16 bits
Stream size                      : 472 MiB (14%)

Enjoy...

Requested by DreamExtractor.